<svg width="122" height="28" viewBox="0 0 122 28" fill="none" xmlns="http://www.w3.org/2000/svg">
<g clip-path="url(#clip0_1_19)">
<path d="M39.9328 10.625H41.1516L41.0422 12.7734L38.6281 22H37.3625L37.6906 19.5859L39.9328 10.625ZM37.8781 19.5312L38.0109 22H36.6672L34.05 10.625H36.0578L37.8781 19.5312ZM45.4719 10.625H47.4797L44.8703 22H43.5187L43.6828 19.5078L45.4719 10.625ZM43.8547 19.6172L44.1672 22H42.9016L40.5266 12.7734L40.4328 10.625H41.6281L43.8547 19.6172ZM53.015 16.2891C53.015 15.8516 52.8926 15.5026 52.6478 15.2422C52.4082 14.9818 52.0436 14.8516 51.5541 14.8516C51.2624 14.8516 51.0072 14.9036 50.7884 15.0078C50.5697 15.1068 50.4004 15.2422 50.2806 15.4141C50.1608 15.5859 50.1009 15.7812 50.1009 16H48.1634C48.1634 15.5469 48.3067 15.1224 48.5931 14.7266C48.8796 14.3255 49.2832 14.0026 49.8041 13.7578C50.3301 13.513 50.9499 13.3906 51.6634 13.3906C52.2989 13.3906 52.864 13.4974 53.3587 13.7109C53.8535 13.9245 54.2416 14.2474 54.5228 14.6797C54.8093 15.112 54.9525 15.6536 54.9525 16.3047V20.0312C54.9525 20.4271 54.9811 20.776 55.0384 21.0781C55.0957 21.3802 55.1765 21.6432 55.2806 21.8672V22H53.2962C53.2077 21.7969 53.1374 21.5339 53.0853 21.2109C53.0384 20.888 53.015 20.5729 53.015 20.2656V16.2891ZM53.3119 18.0469H51.9837C51.2962 18.0469 50.778 18.1745 50.4291 18.4297C50.0853 18.6797 49.9134 19.0208 49.9134 19.4531C49.9134 19.7865 50.028 20.0651 50.2572 20.2891C50.4864 20.5078 50.8093 20.6172 51.2259 20.6172C51.6061 20.6172 51.9369 20.5417 52.2181 20.3906C52.5046 20.2344 52.7285 20.0443 52.89 19.8203C53.0515 19.5911 53.1348 19.3776 53.14 19.1797L53.7572 20.0469C53.6947 20.2604 53.5879 20.4896 53.4369 20.7344C53.291 20.974 53.0957 21.2031 52.8509 21.4219C52.6114 21.6354 52.3249 21.8125 51.9916 21.9531C51.6634 22.0885 51.2806 22.1562 50.8431 22.1562C50.291 22.1562 49.7989 22.0469 49.3666 21.8281C48.9343 21.6094 48.5931 21.3099 48.3431 20.9297C48.0983 20.5443 47.9759 20.112 47.9759 19.6328C47.9759 18.737 48.3119 18.0495 48.9837 17.5703C49.6556 17.0911 50.6087 16.8516 51.8431 16.8516H53.2962L53.3119 18.0469ZM60.6675 14.9766H55.8706V13.5469H60.6675V14.9766ZM59.1675 11.4766V19.6172C59.1675 19.8776 59.204 20.0755 59.2769 20.2109C59.3498 20.3411 59.454 20.4297 59.5894 20.4766C59.7248 20.5234 59.881 20.5469 60.0581 20.5469C60.1883 20.5469 60.3133 20.5391 60.4331 20.5234C60.5529 20.5078 60.6493 20.4922 60.7222 20.4766V21.9688C60.5659 22.0208 60.3836 22.0651 60.1753 22.1016C59.9722 22.138 59.7326 22.1562 59.4566 22.1562C59.0243 22.1562 58.6389 22.0781 58.3003 21.9219C57.967 21.7656 57.704 21.513 57.5112 21.1641C57.3237 20.8099 57.23 20.3411 57.23 19.7578V11.4766H59.1675ZM65.4059 20.6016C65.708 20.6016 65.9815 20.5417 66.2262 20.4219C66.471 20.2969 66.6664 20.1276 66.8122 19.9141C66.958 19.7005 67.0387 19.4557 67.0544 19.1797H68.8825C68.8669 19.737 68.7028 20.2396 68.3903 20.6875C68.0778 21.1354 67.6637 21.4922 67.1481 21.7578C66.6325 22.0234 66.057 22.1562 65.4216 22.1562C64.5622 22.1562 63.846 21.9661 63.2731 21.5859C62.7054 21.2005 62.2809 20.6875 61.9997 20.0469C61.7184 19.401 61.5778 18.6875 61.5778 17.9062V17.6406C61.5778 16.8594 61.7184 16.1484 61.9997 15.5078C62.2809 14.862 62.7054 14.349 63.2731 13.9688C63.846 13.5833 64.5622 13.3906 65.4216 13.3906C66.1039 13.3906 66.7002 13.526 67.2106 13.7969C67.7262 14.0625 68.1299 14.4349 68.4216 14.9141C68.7132 15.3932 68.8669 15.9531 68.8825 16.5938H67.0544C67.0387 16.2917 66.9632 16.0156 66.8278 15.7656C66.6976 15.5156 66.5101 15.3177 66.2653 15.1719C66.0257 15.0208 65.7367 14.9453 65.3981 14.9453C64.8981 14.9453 64.5101 15.0755 64.2341 15.3359C63.9632 15.5964 63.7757 15.9323 63.6716 16.3438C63.5674 16.7552 63.5153 17.1875 63.5153 17.6406V17.9062C63.5153 18.3646 63.5648 18.7995 63.6637 19.2109C63.7679 19.6224 63.958 19.9583 64.2341 20.2188C64.5101 20.474 64.9007 20.6016 65.4059 20.6016ZM72.0584 22H70.1209V10H72.0584V22ZM71.0975 17.4766C71.1027 16.6901 71.2407 15.9896 71.5116 15.375C71.7876 14.7604 72.173 14.276 72.6678 13.9219C73.1626 13.5677 73.7407 13.3906 74.4022 13.3906C74.9595 13.3906 75.4439 13.4974 75.8553 13.7109C76.272 13.9193 76.5949 14.2578 76.8241 14.7266C77.0532 15.1901 77.1678 15.8099 77.1678 16.5859V22H75.2225V16.5703C75.2225 16.1745 75.1652 15.8594 75.0506 15.625C74.936 15.3906 74.7668 15.224 74.5428 15.125C74.3241 15.026 74.0558 14.9766 73.7381 14.9766C73.4048 14.9766 73.1131 15.0417 72.8631 15.1719C72.6131 15.2969 72.4022 15.474 72.2303 15.7031C72.0584 15.9323 71.9308 16.1979 71.8475 16.5C71.7642 16.8021 71.7225 17.125 71.7225 17.4688L71.0975 17.4766ZM89.7775 10.625H92.0041L87.9416 22H86.4338L86.8166 19.8516L89.7775 10.625ZM87.0431 19.8516L87.4494 22H85.9416L81.8869 10.625H84.1056L87.0431 19.8516ZM94.9847 22H93.0472V13.5469H94.9847V22ZM92.9222 11.3359C92.9222 11.0391 93.0185 10.7943 93.2113 10.6016C93.404 10.4036 93.6722 10.3047 94.0159 10.3047C94.3597 10.3047 94.6305 10.4036 94.8284 10.6016C95.0264 10.7943 95.1253 11.0391 95.1253 11.3359C95.1253 11.6276 95.0264 11.8724 94.8284 12.0703C94.6305 12.263 94.3597 12.3594 94.0159 12.3594C93.6722 12.3594 93.404 12.263 93.2113 12.0703C93.0185 11.8724 92.9222 11.6276 92.9222 11.3359ZM102.004 10H103.942V22H102.184L102.004 20.2266V10ZM96.52 17.7031C96.52 16.849 96.6528 16.099 96.9184 15.4531C97.1893 14.8021 97.5721 14.2969 98.0669 13.9375C98.5617 13.5729 99.1554 13.3906 99.8481 13.3906C100.53 13.3906 101.101 13.5677 101.559 13.9219C102.017 14.276 102.377 14.7682 102.637 15.3984C102.903 16.0234 103.08 16.75 103.168 17.5781V18.0312C103.08 18.8333 102.905 19.5443 102.645 20.1641C102.385 20.7839 102.023 21.2708 101.559 21.625C101.101 21.9792 100.525 22.1562 99.8325 22.1562C99.1502 22.1562 98.5617 21.9714 98.0669 21.6016C97.5721 21.2266 97.1893 20.7161 96.9184 20.0703C96.6528 19.4245 96.52 18.6901 96.52 17.8672V17.7031ZM98.4575 17.8672C98.4575 18.3672 98.52 18.8229 98.645 19.2344C98.77 19.6406 98.9679 19.9661 99.2388 20.2109C99.5148 20.4505 99.8768 20.5703 100.325 20.5703C100.747 20.5703 101.093 20.4792 101.364 20.2969C101.64 20.1094 101.853 19.8568 102.004 19.5391C102.161 19.2214 102.267 18.8646 102.325 18.4688V17.1484C102.288 16.8359 102.223 16.5469 102.129 16.2812C102.036 16.0156 101.908 15.7865 101.747 15.5938C101.59 15.401 101.395 15.25 101.161 15.1406C100.926 15.0312 100.653 14.9766 100.34 14.9766C99.8924 14.9766 99.5278 15.099 99.2466 15.3438C98.9705 15.5833 98.77 15.9115 98.645 16.3281C98.52 16.7396 98.4575 17.1979 98.4575 17.7031V17.8672ZM109.485 22.1562C108.646 22.1562 107.923 21.9766 107.313 21.6172C106.704 21.2526 106.235 20.763 105.907 20.1484C105.579 19.5286 105.415 18.8359 105.415 18.0703V17.75C105.415 16.8698 105.581 16.1042 105.915 15.4531C106.248 14.7969 106.704 14.2891 107.282 13.9297C107.865 13.5703 108.524 13.3906 109.258 13.3906C110.071 13.3906 110.745 13.5677 111.282 13.9219C111.818 14.2708 112.219 14.7578 112.485 15.3828C112.751 16.0026 112.883 16.7214 112.883 17.5391V18.375H106.344V16.9766H110.969V16.8281C110.959 16.5 110.896 16.1927 110.782 15.9062C110.667 15.6198 110.485 15.388 110.235 15.2109C109.99 15.0339 109.662 14.9453 109.251 14.9453C108.839 14.9453 108.493 15.0625 108.212 15.2969C107.93 15.526 107.717 15.8516 107.571 16.2734C107.425 16.6901 107.352 17.1823 107.352 17.75V18.0703C107.352 18.5495 107.441 18.9792 107.618 19.3594C107.795 19.7396 108.053 20.0417 108.391 20.2656C108.73 20.4844 109.133 20.5938 109.602 20.5938C110.055 20.5938 110.456 20.5052 110.805 20.3281C111.159 20.151 111.464 19.8958 111.719 19.5625L112.735 20.5781C112.469 20.9792 112.068 21.3438 111.532 21.6719C111.001 21.9948 110.318 22.1562 109.485 22.1562ZM113.817 17.6953C113.817 16.8724 113.973 16.138 114.286 15.4922C114.598 14.8464 115.046 14.3359 115.63 13.9609C116.218 13.5807 116.924 13.3906 117.747 13.3906C118.58 13.3906 119.291 13.5807 119.88 13.9609C120.468 14.3359 120.916 14.8464 121.223 15.4922C121.536 16.138 121.692 16.8724 121.692 17.6953V17.8594C121.692 18.6771 121.536 19.4115 121.223 20.0625C120.916 20.7083 120.468 21.2188 119.88 21.5938C119.296 21.9688 118.591 22.1562 117.762 22.1562C116.934 22.1562 116.226 21.9688 115.637 21.5938C115.049 21.2188 114.598 20.7083 114.286 20.0625C113.973 19.4115 113.817 18.6771 113.817 17.8594V17.6953ZM115.755 17.8594C115.755 18.3594 115.825 18.8177 115.966 19.2344C116.106 19.6458 116.322 19.9766 116.614 20.2266C116.911 20.4766 117.294 20.6016 117.762 20.6016C118.226 20.6016 118.604 20.4766 118.895 20.2266C119.192 19.9766 119.408 19.6458 119.544 19.2344C119.684 18.8177 119.755 18.3594 119.755 17.8594V17.6953C119.755 17.2005 119.684 16.7448 119.544 16.3281C119.408 15.9115 119.192 15.5781 118.895 15.3281C118.598 15.0729 118.216 14.9453 117.747 14.9453C117.283 14.9453 116.903 15.0729 116.606 15.3281C116.315 15.5781 116.098 15.9115 115.958 16.3281C115.822 16.7448 115.755 17.2005 115.755 17.6953V17.8594Z" fill="white"/>
<path fill-rule="evenodd" clip-rule="evenodd" d="M14.5 1.99756C7.5965 1.99756 2 7.59434 2 14.497C2 21.4018 7.5965 26.9981 14.5 26.9981C21.4035 26.9981 27 21.4018 27 14.497C27 7.59434 21.4035 1.99756 14.5 1.99756ZM18.8203 15.1599L12.5703 19.0669C12.4439 19.1459 12.3 19.1852 12.1563 19.1852C12.0261 19.1852 11.8955 19.1524 11.7775 19.0868C11.5292 18.9497 11.375 18.6873 11.375 18.4046V10.5917C11.375 10.3078 11.5292 10.0459 11.7775 9.90831C12.0258 9.7696 12.3295 9.77767 12.5703 9.92929L18.8203 13.8346C19.0486 13.9782 19.1875 14.2287 19.1875 14.497C19.1875 14.7669 19.0486 15.018 18.8203 15.1599Z" fill="white"/>
</g>
<defs>
<clipPath id="clip0_1_19">
<rect width="122" height="28" fill="white"/>
</clipPath>
</defs>
</svg>
